<svg xmlns="http://www.w3.org/2000/svg" width="433" height="433" viewBox="0 0 433 433"><g transform="translate(216.5 216.5)" fill="none" stroke="#ffffff" stroke-linejoin="round" opacity="0.79790"><rect x="-116.55399092686591" y="-116.55399092686591" width="233.10798185373181" height="233.10798185373181" rx="5" stroke-width="6" opacity="0.8"/><rect x="-116.55399092686591" y="-116.55399092686591" width="233.10798185373181" height="233.10798185373181" rx="3" transform="rotate(45)" stroke-width="5.5" opacity="0.92"/><g transform="rotate(100.74468085106382)" stroke-linecap="round" stroke-width="11"><path d="M 107.55399092686591 0 A 107.55399092686591 107.55399092686591 0 0 1 -65.87548207964014 85.01930266163893"/><path d="M -107.55399092686591 0 A 107.55399092686591 107.55399092686591 0 0 1 65.87548207964014 -85.01930266163893"/></g><path d="M 0 -4.403802625622455 L 1.3211407876867365 -1.3211407876867365 L 4.403802625622455 0 L 1.3211407876867365 1.3211407876867365 L 0 4.403802625622455 L -1.3211407876867365 1.3211407876867365 L -4.403802625622455 0 L -1.3211407876867365 -1.3211407876867365 Z" fill="#ffffff" stroke="none"/><rect x="-1.7021276595744683" y="-1.7021276595744683" width="3.4042553191489366" height="3.4042553191489366" fill="#ffffff" stroke="none" transform="translate(117.30690572662404 117.30690572662402) rotate(45)"/><rect x="-1.7021276595744683" y="-1.7021276595744683" width="3.4042553191489366" height="3.4042553191489366" fill="#ffffff" stroke="none" transform="translate(-117.30690572662402 117.30690572662404) rotate(45)"/><rect x="-1.7021276595744683" y="-1.7021276595744683" width="3.4042553191489366" height="3.4042553191489366" fill="#ffffff" stroke="none" transform="translate(-117.30690572662405 -117.30690572662402) rotate(45)"/><rect x="-1.7021276595744683" y="-1.7021276595744683" width="3.4042553191489366" height="3.4042553191489366" fill="#ffffff" stroke="none" transform="translate(117.30690572662401 -117.30690572662405) rotate(45)"/></g></svg>